<svg id="Flat" height="512" viewBox="0 0 512 512" width="512" xmlns="http://www.w3.org/2000/svg"><path d="m128 72h328v384h-328z" fill="#0093ba"/><path d="m48 184h176v144h-176z" fill="#ecaf4a"/><path d="m104 184h64v48h-64z" fill="#f9d28d"/><path d="m184 288h16v16h-16z" fill="#d18b29"/><path d="m152 288h16v16h-16z" fill="#d18b29"/><path d="m48 312h176v16h-176z" fill="#d69f44"/><path d="m24 328h224v160h-224z" fill="#ecaf4a"/><path d="m104 328h64v48h-64z" fill="#f9d28d"/><path d="m208 448h16v16h-16z" fill="#d18b29"/><path d="m176 448h16v16h-16z" fill="#d18b29"/><path d="m24 472h224v16h-224z" fill="#d69f44"/><g fill="#7ecce6"><path d="m160 104h16v16h-16z"/><path d="m192 104h104v16h-104z"/><path d="m160 136h136v16h-136z"/><path d="m416 200h-168v16h104v24h-104v16h104v24h-104v16h104v24h-80v16h80v24h-80v16h144a8 8 0 0 0 8-8v-160a8 8 0 0 0 -8-8zm-48 16h40v24h-40zm0 40h40v24h-40zm0 40h40v24h-40zm0 64v-24h40v24z"/><path d="m408 408h16v16h-16z"/><path d="m376 408h16v16h-16z"/></g><circle cx="416" cy="96" fill="#88bf40" r="72"/><path d="m382.059 88h67.882v16h-67.882z" fill="#c5da5d" transform="matrix(.707 -.707 .707 .707 53.961 322.274)"/><path d="m384 64h16v16h-16z" fill="#c5da5d"/><path d="m432 112h16v16h-16z" fill="#c5da5d"/><path d="m480 216h16v176h-16z" fill="#ccdce5"/><path d="m480 408h16v16h-16z" fill="#ccdce5"/></svg>